<?xml version="1.0" standalone="no"?>
<!DOCTYPE svg PUBLIC "-//W3C//DTD SVG 20010904//EN"
 "http://www.w3.org/TR/2001/REC-SVG-20010904/DTD/svg10.dtd">
<svg version="1.0" xmlns="http://www.w3.org/2000/svg"
 width="1000.000000pt" height="1000.000000pt" viewBox="0 0 1000.000000 1000.000000"
 preserveAspectRatio="xMidYMid meet">
<metadata>
Created by potrace 1.11, written by Peter Selinger 2001-2013
</metadata>
<g transform="translate(0.000000,1000.000000) scale(0.100000,-0.100000)"
fill="#000000" stroke="none">
<path d="M4854 8360 c-123 -12 -264 -42 -392 -85 -107 -35 -325 -138 -372
-174 l-25 -20 46 -48 c69 -72 79 -91 79 -150 0 -173 -205 -402 -398 -443 -75
-17 -122 0 -190 66 l-57 55 -17 -23 c-35 -46 -138 -266 -172 -368 -19 -58 -45
-150 -57 -205 -23 -98 -23 -113 -26 -899 -4 -747 -5 -798 -21 -793 -9 3 -56
19 -104 36 -191 67 -418 83 -578 42 -259 -67 -547 -280 -1025 -756 -93 -94
-197 -188 -229 -209 -125 -83 -232 -107 -501 -112 -240 -6 -260 -8 -291 -39
-58 -58 -15 -139 104 -193 122 -57 210 -75 362 -75 329 1 641 124 903 357 327
291 551 417 793 448 222 28 418 -69 515 -257 69 -133 71 -156 61 -820 l-7
-530 -29 -53 c-55 -100 -143 -153 -294 -179 -124 -22 -224 -13 -307 25 -76 36
-151 107 -183 173 -87 181 -16 426 153 525 64 37 118 40 225 14 112 -29 154
-22 183 28 13 22 17 41 12 59 -27 109 -340 215 -539 183 -208 -33 -370 -150
-460 -331 -62 -124 -80 -212 -73 -363 18 -398 276 -725 653 -828 105 -28 329
-31 452 -4 400 85 649 319 728 681 14 67 18 155 23 537 l6 456 30 43 c78 110
255 126 351 31 62 -63 59 -30 59 -682 0 -637 -2 -663 -52 -825 -81 -259 -254
-457 -519 -592 -221 -114 -415 -159 -731 -172 -229 -9 -273 -19 -318 -73 -74
-87 15 -166 235 -209 84 -16 357 -16 480 0 752 100 1248 464 1389 1016 43 170
44 193 50 837 l6 626 30 43 c90 128 297 126 383 -3 l27 -41 6 -626 c6 -666 7
-682 59 -871 28 -99 106 -261 171 -356 228 -329 660 -552 1209 -625 123 -16
397 -16 478 0 225 44 311 121 237 209 -45 54 -89 64 -314 73 -230 9 -363 30
-525 83 -366 120 -623 356 -725 666 -52 160 -53 177 -58 790 -4 419 -2 589 7
628 22 100 106 164 216 165 112 1 205 -71 225 -174 4 -24 8 -233 9 -464 1
-491 5 -529 89 -700 123 -250 335 -403 653 -471 124 -27 346 -24 453 5 300 81
526 306 621 617 25 80 28 105 28 244 1 145 -1 160 -27 235 -60 168 -170 297
-311 365 -109 51 -172 65 -291 63 -154 -2 -331 -60 -403 -133 -42 -41 -47 -63
-25 -108 27 -55 66 -62 183 -32 139 34 210 17 298 -71 88 -89 136 -242 114
-360 -24 -128 -91 -218 -206 -275 -92 -45 -186 -54 -320 -31 -164 29 -262 98
-306 214 -19 52 -20 77 -20 632 0 499 2 585 16 632 56 189 206 326 395 360
132 23 309 -13 480 -100 141 -71 262 -160 485 -355 263 -229 568 -348 894
-349 152 0 240 18 362 75 91 41 130 86 126 140 -2 31 -10 46 -31 62 -26 19
-46 22 -250 27 -407 12 -486 44 -737 300 -151 153 -367 353 -510 472 -244 202
-450 306 -649 326 -154 16 -364 -15 -510 -75 -34 -13 -63 -24 -65 -24 -3 0 -6
345 -9 768 -5 860 -5 860 -83 1104 -33 105 -125 309 -174 386 l-21 34 -60 -56
c-73 -68 -114 -83 -191 -67 -175 37 -380 255 -395 420 -7 73 11 113 78 176 47
44 49 48 32 61 -45 35 -309 156 -411 189 -205 65 -466 94 -668 75z m-650
-2431 l297 -301 -22 -25 c-35 -37 -137 -82 -213 -95 -161 -27 -329 48 -418
186 -48 75 -70 147 -70 236 0 38 7 93 16 122 16 55 88 178 105 178 5 0 142
-136 305 -301z m1987 185 c40 -84 54 -167 40 -246 -56 -322 -416 -472 -675
-282 l-49 36 304 304 304 305 23 -28 c13 -16 37 -55 53 -89z"/>
<path d="M3381 8254 c-48 -40 -43 -72 42 -237 144 -280 271 -457 328 -457 40
0 126 48 190 107 67 63 136 185 124 222 -10 32 -103 109 -217 181 -136 85
-381 210 -412 210 -13 0 -38 -12 -55 -26z"/>
<path d="M6408 8207 c-191 -98 -338 -190 -410 -258 -67 -63 -68 -71 -19 -164
53 -102 209 -225 284 -225 53 0 185 186 322 453 63 124 82 169 78 190 -7 33
-56 77 -88 77 -13 0 -88 -33 -167 -73z"/>
</g>
</svg>
